{
	"asset":{
		"generator":"Khronos glTF Blender I/O v3.6.28",
		"version":"2.0"
	},
	"extensionsUsed":[
		"KHR_materials_clearcoat"
	],
	"scene":0,
	"scenes":[
		{
			"name":"Scene",
			"nodes":[
				0
			]
		}
	],
	"nodes":[
		{
			"mesh":0,
			"name":"Bullet"
		}
	],
	"materials":[
		{
			"doubleSided":true,
			"extensions":{
				"KHR_materials_clearcoat":{
					"clearcoatFactor":0.25,
					"clearcoatRoughnessFactor":0.10000000149011612
				}
			},
			"name":"Bullet_Base_Color",
			"normalTexture":{
				"index":0
			},
			"occlusionTexture":{
				"index":1
			},
			"pbrMetallicRoughness":{
				"baseColorTexture":{
					"index":2
				},
				"metallicRoughnessTexture":{
					"index":1
				}
			}
		}
	],
	"meshes":[
		{
			"name":"Bullet_Back_Shell1_Bullet_Base_Color_0",
			"primitives":[
				{
					"attributes":{
						"POSITION":0,
						"NORMAL":1,
						"TEXCOORD_0":2,
						"TEXCOORD_1":3
					},
					"indices":4,
					"material":0
				}
			]
		}
	],
	"textures":[
		{
			"sampler":0,
			"source":0
		},
		{
			"sampler":0,
			"source":1
		},
		{
			"sampler":0,
			"source":2
		}
	],
	"images":[
		{
			"bufferView":5,
			"mimeType":"image/png",
			"name":"Image_10"
		},
		{
			"bufferView":6,
			"mimeType":"image/png",
			"name":"Image_9"
		},
		{
			"bufferView":7,
			"mimeType":"image/png",
			"name":"Image_8"
		}
	],
	"accessors":[
		{
			"bufferView":0,
			"componentType":5126,
			"count":715,
			"max":[
				0.4607924818992615,
				0.46031153202056885,
				1.067636489868164
			],
			"min":[
				-0.4603087902069092,
				-0.4638557434082031,
				-1.9867534637451172
			],
			"type":"VEC3"
		},
		{
			"bufferView":1,
			"componentType":5126,
			"count":715,
			"type":"VEC3"
		},
		{
			"bufferView":2,
			"componentType":5126,
			"count":715,
			"type":"VEC2"
		},
		{
			"bufferView":3,
			"componentType":5126,
			"count":715,
			"type":"VEC2"
		},
		{
			"bufferView":4,
			"componentType":5123,
			"count":2307,
			"type":"SCALAR"
		}
	],
	"bufferViews":[
		{
			"buffer":0,
			"byteLength":8580,
			"byteOffset":0,
			"target":34962
		},
		{
			"buffer":0,
			"byteLength":8580,
			"byteOffset":8580,
			"target":34962
		},
		{
			"buffer":0,
			"byteLength":5720,
			"byteOffset":17160,
			"target":34962
		},
		{
			"buffer":0,
			"byteLength":5720,
			"byteOffset":22880,
			"target":34962
		},
		{
			"buffer":0,
			"byteLength":4614,
			"byteOffset":28600,
			"target":34963
		},
		{
			"buffer":0,
			"byteLength":408198,
			"byteOffset":33216
		},
		{
			"buffer":0,
			"byteLength":538484,
			"byteOffset":441416
		},
		{
			"buffer":0,
			"byteLength":546568,
			"byteOffset":979900
		}
	],
	"samplers":[
		{
			"magFilter":9729,
			"minFilter":9987
		}
	],
	"buffers":[
		{
			"byteLength":1526468,
			"uri":"data:application/octet-stream;base64,"
		}
	]
}
