{
	"asset":{
		"generator":"Khronos glTF Blender I/O v3.6.28",
		"version":"2.0"
	},
	"scene":0,
	"scenes":[
		{
			"name":"Scene",
			"nodes":[
				0
			]
		}
	],
	"nodes":[
		{
			"mesh":0,
			"name":"Pistol_02_Cube"
		}
	],
	"materials":[
		{
			"name":"Black_Pistol02",
			"pbrMetallicRoughness":{
				"baseColorFactor":[
					0.0481720007956028,
					0.0481720007956028,
					0.0481720007956028,
					1
				],
				"metallicFactor":0,
				"roughnessFactor":0.6759999990463257
			}
		},
		{
			"name":"Gray_Pistol02",
			"pbrMetallicRoughness":{
				"baseColorFactor":[
					0.13286800682544708,
					0.13286800682544708,
					0.13286800682544708,
					1
				],
				"metallicFactor":0,
				"roughnessFactor":0.7749999761581421
			}
		},
		{
			"name":"White_Pistol02",
			"pbrMetallicRoughness":{
				"baseColorFactor":[
					0.7758219838142395,
					0.7758219838142395,
					0.7758219838142395,
					1
				],
				"metallicFactor":0,
				"roughnessFactor":0.7749999761581421
			}
		}
	],
	"meshes":[
		{
			"name":"Pistol_02_Cube-Mesh",
			"primitives":[
				{
					"attributes":{
						"POSITION":0,
						"NORMAL":1,
						"TEXCOORD_0":2
					},
					"indices":3,
					"material":0
				},
				{
					"attributes":{
						"POSITION":4,
						"NORMAL":5,
						"TEXCOORD_0":6
					},
					"indices":7,
					"material":1
				},
				{
					"attributes":{
						"POSITION":8,
						"NORMAL":9,
						"TEXCOORD_0":10
					},
					"indices":11,
					"material":2
				}
			]
		}
	],
	"accessors":[
		{
			"bufferView":0,
			"componentType":5126,
			"count":599,
			"max":[
				0.4000619947910309,
				0.6784359812736511,
				2.064434051513672
			],
			"min":[
				-0.41383299231529236,
				-2.0452349185943604,
				-1.9075030088424683
			],
			"type":"VEC3"
		},
		{
			"bufferView":1,
			"componentType":5126,
			"count":599,
			"type":"VEC3"
		},
		{
			"bufferView":2,
			"componentType":5126,
			"count":599,
			"type":"VEC2"
		},
		{
			"bufferView":3,
			"componentType":5123,
			"count":888,
			"type":"SCALAR"
		},
		{
			"bufferView":4,
			"componentType":5126,
			"count":342,
			"max":[
				0.3213160037994385,
				0.5587700009346008,
				1.8098909854888916
			],
			"min":[
				-0.33508700132369995,
				-0.2924230098724365,
				-2.0215630531311035
			],
			"type":"VEC3"
		},
		{
			"bufferView":5,
			"componentType":5126,
			"count":342,
			"type":"VEC3"
		},
		{
			"bufferView":6,
			"componentType":5126,
			"count":342,
			"type":"VEC2"
		},
		{
			"bufferView":7,
			"componentType":5123,
			"count":666,
			"type":"SCALAR"
		},
		{
			"bufferView":8,
			"componentType":5126,
			"count":18,
			"max":[
				0.3213160037994385,
				0.5510320067405701,
				0.27100300788879395
			],
			"min":[
				-0.21220199763774872,
				0.30152300000190735,
				-0.27375900745391846
			],
			"type":"VEC3"
		},
		{
			"bufferView":9,
			"componentType":5126,
			"count":18,
			"type":"VEC3"
		},
		{
			"bufferView":10,
			"componentType":5126,
			"count":18,
			"type":"VEC2"
		},
		{
			"bufferView":11,
			"componentType":5123,
			"count":30,
			"type":"SCALAR"
		}
	],
	"bufferViews":[
		{
			"buffer":0,
			"byteLength":7188,
			"byteOffset":0,
			"target":34962
		},
		{
			"buffer":0,
			"byteLength":7188,
			"byteOffset":7188,
			"target":34962
		},
		{
			"buffer":0,
			"byteLength":4792,
			"byteOffset":14376,
			"target":34962
		},
		{
			"buffer":0,
			"byteLength":1776,
			"byteOffset":19168,
			"target":34963
		},
		{
			"buffer":0,
			"byteLength":4104,
			"byteOffset":20944,
			"target":34962
		},
		{
			"buffer":0,
			"byteLength":4104,
			"byteOffset":25048,
			"target":34962
		},
		{
			"buffer":0,
			"byteLength":2736,
			"byteOffset":29152,
			"target":34962
		},
		{
			"buffer":0,
			"byteLength":1332,
			"byteOffset":31888,
			"target":34963
		},
		{
			"buffer":0,
			"byteLength":216,
			"byteOffset":33220,
			"target":34962
		},
		{
			"buffer":0,
			"byteLength":216,
			"byteOffset":33436,
			"target":34962
		},
		{
			"buffer":0,
			"byteLength":144,
			"byteOffset":33652,
			"target":34962
		},
		{
			"buffer":0,
			"byteLength":60,
			"byteOffset":33796,
			"target":34963
		}
	],
	"buffers":[
		{
			"byteLength":33856,
			"uri":"data:application/octet-stream;base64,"
		}
	]
}
