{
	"asset":{
		"generator":"Khronos glTF Blender I/O v3.6.28",
		"version":"2.0"
	},
	"extensionsUsed":[
		"KHR_materials_specular",
		"KHR_materials_ior"
	],
	"scene":0,
	"scenes":[
		{
			"name":"Scene",
			"nodes":[
				0
			]
		}
	],
	"nodes":[
		{
			"mesh":0,
			"name":"Weapon",
			"rotation":[
				0.7071068286895752,
				0,
				0,
				0.7071068286895752
			]
		}
	],
	"materials":[
		{
			"alphaMode":"BLEND",
			"doubleSided":true,
			"extensions":{
				"KHR_materials_specular":{
					"specularColorFactor":[
						2.371357614441398,
						2.371357614441398,
						2.371357614441398
					]
				},
				"KHR_materials_ior":{
					"ior":1.4500000476837158
				}
			},
			"name":"Weapons1.004",
			"pbrMetallicRoughness":{
				"baseColorTexture":{
					"index":0
				},
				"metallicFactor":0,
				"roughnessFactor":0.8871681690216064
			}
		},
		{
			"alphaMode":"BLEND",
			"doubleSided":true,
			"extensions":{
				"KHR_materials_specular":{
					"specularColorFactor":[
						2.371357614441398,
						2.371357614441398,
						2.371357614441398
					]
				},
				"KHR_materials_ior":{
					"ior":1.4500000476837158
				}
			},
			"name":"Weapons1.005",
			"pbrMetallicRoughness":{
				"baseColorTexture":{
					"index":1
				},
				"metallicFactor":0,
				"roughnessFactor":0.8871681690216064
			}
		}
	],
	"meshes":[
		{
			"name":"SM_Weapon_02",
			"primitives":[
				{
					"attributes":{
						"POSITION":0,
						"NORMAL":1,
						"TEXCOORD_0":2,
						"TEXCOORD_1":3,
						"TEXCOORD_2":4
					},
					"indices":5,
					"material":0
				},
				{
					"attributes":{
						"POSITION":6,
						"NORMAL":7,
						"TEXCOORD_0":8,
						"TEXCOORD_1":9,
						"TEXCOORD_2":10
					},
					"indices":11,
					"material":1
				}
			]
		}
	],
	"textures":[
		{
			"sampler":0,
			"source":0
		},
		{
			"sampler":0,
			"source":0
		}
	],
	"images":[
		{
			"bufferView":6,
			"mimeType":"image/png",
			"name":"T_Texture_01"
		}
	],
	"accessors":[
		{
			"bufferView":0,
			"componentType":5126,
			"count":6868,
			"max":[
				0.6619182229042053,
				0.037688422948122025,
				0.08878406137228012
			],
			"min":[
				-0.32214686274528503,
				-0.033969659358263016,
				-0.14841508865356445
			],
			"type":"VEC3"
		},
		{
			"bufferView":1,
			"componentType":5126,
			"count":6868,
			"type":"VEC3"
		},
		{
			"bufferView":2,
			"componentType":5126,
			"count":6868,
			"type":"VEC2"
		},
		{
			"bufferView":3,
			"componentType":5126,
			"count":6868,
			"type":"VEC2"
		},
		{
			"bufferView":4,
			"componentType":5126,
			"count":6868,
			"type":"VEC2"
		},
		{
			"bufferView":5,
			"componentType":5123,
			"count":14184,
			"type":"SCALAR"
		},
		{
			"bufferView":7,
			"componentType":5126,
			"count":834,
			"max":[
				0.21375106275081635,
				0.01705603115260601,
				0.17383483052253723
			],
			"min":[
				0.09522193670272827,
				-0.016958272084593773,
				-0.006838507950305939
			],
			"type":"VEC3"
		},
		{
			"bufferView":8,
			"componentType":5126,
			"count":834,
			"type":"VEC3"
		},
		{
			"bufferView":9,
			"componentType":5126,
			"count":834,
			"type":"VEC2"
		},
		{
			"bufferView":10,
			"componentType":5126,
			"count":834,
			"type":"VEC2"
		},
		{
			"bufferView":11,
			"componentType":5126,
			"count":834,
			"type":"VEC2"
		},
		{
			"bufferView":12,
			"componentType":5123,
			"count":1740,
			"type":"SCALAR"
		}
	],
	"bufferViews":[
		{
			"buffer":0,
			"byteLength":82416,
			"byteOffset":0,
			"target":34962
		},
		{
			"buffer":0,
			"byteLength":82416,
			"byteOffset":82416,
			"target":34962
		},
		{
			"buffer":0,
			"byteLength":54944,
			"byteOffset":164832,
			"target":34962
		},
		{
			"buffer":0,
			"byteLength":54944,
			"byteOffset":219776,
			"target":34962
		},
		{
			"buffer":0,
			"byteLength":54944,
			"byteOffset":274720,
			"target":34962
		},
		{
			"buffer":0,
			"byteLength":28368,
			"byteOffset":329664,
			"target":34963
		},
		{
			"buffer":0,
			"byteLength":5773,
			"byteOffset":358032
		},
		{
			"buffer":0,
			"byteLength":10008,
			"byteOffset":363808,
			"target":34962
		},
		{
			"buffer":0,
			"byteLength":10008,
			"byteOffset":373816,
			"target":34962
		},
		{
			"buffer":0,
			"byteLength":6672,
			"byteOffset":383824,
			"target":34962
		},
		{
			"buffer":0,
			"byteLength":6672,
			"byteOffset":390496,
			"target":34962
		},
		{
			"buffer":0,
			"byteLength":6672,
			"byteOffset":397168,
			"target":34962
		},
		{
			"buffer":0,
			"byteLength":3480,
			"byteOffset":403840,
			"target":34963
		}
	],
	"samplers":[
		{
			"magFilter":9729,
			"minFilter":9987
		}
	],
	"buffers":[
		{
			"byteLength":407320,
			"uri":"data:application/octet-stream;base64,"
		}
	]
}
