{
  "accessors": [
    {
      "bufferView": 2,
      "componentType": 5126,
      "count": 65534,
      "max": [
        91.20535278320313,
        75.71700286865234,
        14.963510513305664
      ],
      "min": [
        -74.4817123413086,
        -67.02426147460938,
        -78.48819732666016
      ],
      "type": "VEC3"
    },
    {
      "bufferView": 2,
      "byteOffset": 786408,
      "componentType": 5126,
      "count": 65534,
      "max": [
        1.0,
        1.0,
        1.0
      ],
      "min": [
        -1.0,
        -1.0,
        -1.0
      ],
      "type": "VEC3"
    },
    {
      "bufferView": 1,
      "componentType": 5126,
      "count": 65534,
      "max": [
        0.9886276721954346,
        0.9849667549133301
      ],
      "min": [
        0.01877737045288086,
        0.4541909694671631
      ],
      "type": "VEC2"
    },
    {
      "bufferView": 1,
      "byteOffset": 524272,
      "componentType": 5126,
      "count": 65534,
      "max": [
        15.360358238220215,
        15.42543888092041
      ],
      "min": [
        -14.364577293395996,
        -14.42543888092041
      ],
      "type": "VEC2"
    },
    {
      "bufferView": 0,
      "componentType": 5125,
      "count": 132768,
      "type": "SCALAR"
    },
    {
      "bufferView": 2,
      "byteOffset": 1572816,
      "componentType": 5126,
      "count": 19937,
      "max": [
        77.84476470947266,
        62.302528381347656,
        14.647541999816895
      ],
      "min": [
        -50.876426696777344,
        -42.64267349243164,
        0.44830816984176636
      ],
      "type": "VEC3"
    },
    {
      "bufferView": 2,
      "byteOffset": 1812060,
      "componentType": 5126,
      "count": 19937,
      "max": [
        1.0,
        1.0,
        1.0
      ],
      "min": [
        -1.0,
        -1.0,
        -1.0
      ],
      "type": "VEC3"
    },
    {
      "bufferView": 1,
      "byteOffset": 1048544,
      "componentType": 5126,
      "count": 19937,
      "max": [
        0.9858498573303223,
        0.9849667549133301
      ],
      "min": [
        0.0,
        0.0
      ],
      "type": "VEC2"
    },
    {
      "bufferView": 1,
      "byteOffset": 1208040,
      "componentType": 5126,
      "count": 19937,
      "max": [
        5.543641567230225,
        4.824771881103516
      ],
      "min": [
        -4.393345355987549,
        -2.107340097427368
      ],
      "type": "VEC2"
    },
    {
      "bufferView": 0,
      "byteOffset": 531072,
      "componentType": 5125,
      "count": 32559,
      "type": "SCALAR"
    },
    {
      "bufferView": 2,
      "byteOffset": 2051304,
      "componentType": 5126,
      "count": 1913,
      "max": [
        78.95178985595703,
        62.89849853515625,
        14.90603256225586
      ],
      "min": [
        -52.057044982910156,
        -46.259090423583984,
        0.8507803082466125
      ],
      "type": "VEC3"
    },
    {
      "bufferView": 2,
      "byteOffset": 2074260,
      "componentType": 5126,
      "count": 1913,
      "max": [
        1.0,
        1.0,
        1.0
      ],
      "min": [
        -1.0,
        -1.0,
        -1.0
      ],
      "type": "VEC3"
    },
    {
      "bufferView": 3,
      "componentType": 5126,
      "count": 1913,
      "max": [
        1.0,
        1.0,
        1.0,
        1.0
      ],
      "min": [
        -1.0,
        -1.0,
        -1.0,
        -1.0
      ],
      "type": "VEC4"
    },
    {
      "bufferView": 1,
      "byteOffset": 1367536,
      "componentType": 5126,
      "count": 1913,
      "max": [
        0.9799715876579285,
        0.9149888157844543
      ],
      "min": [
        0.03375960886478424,
        0.6408325433731079
      ],
      "type": "VEC2"
    },
    {
      "bufferView": 1,
      "byteOffset": 1382840,
      "componentType": 5126,
      "count": 1913,
      "max": [
        11.086334228515625,
        12.246536254882813
      ],
      "min": [
        -10.2864990234375,
        -11.927417755126953
      ],
      "type": "VEC2"
    },
    {
      "bufferView": 0,
      "byteOffset": 661308,
      "componentType": 5125,
      "count": 2922,
      "type": "SCALAR"
    },
    {
      "bufferView": 2,
      "byteOffset": 2097216,
      "componentType": 5126,
      "count": 37573,
      "max": [
        78.48621368408203,
        61.05439758300781,
        19.87483787536621
      ],
      "min": [
        -51.96256637573242,
        -43.445613861083984,
        0.14089828729629517
      ],
      "type": "VEC3"
    },
    {
      "bufferView": 2,
      "byteOffset": 2548092,
      "componentType": 5126,
      "count": 37573,
      "max": [
        1.0,
        1.0,
        1.0
      ],
      "min": [
        -1.0,
        -1.0,
        -1.0
      ],
      "type": "VEC3"
    },
    {
      "bufferView": 3,
      "byteOffset": 30608,
      "componentType": 5126,
      "count": 37573,
      "max": [
        1.0,
        1.0,
        1.0,
        1.0
      ],
      "min": [
        -1.0,
        -1.0,
        -1.0,
        -1.0
      ],
      "type": "VEC4"
    },
    {
      "bufferView": 1,
      "byteOffset": 1398144,
      "componentType": 5126,
      "count": 37573,
      "max": [
        1.0,
        1.0
      ],
      "min": [
        -5.960464477539063e-08,
        0.17157140374183655
      ],
      "type": "VEC2"
    },
    {
      "bufferView": 1,
      "byteOffset": 1698728,
      "componentType": 5126,
      "count": 37573,
      "max": [
        14.455764770507813,
        19.321495056152344
      ],
      "min": [
        -13.290678977966309,
        -18.821495056152344
      ],
      "type": "VEC2"
    },
    {
      "bufferView": 0,
      "byteOffset": 672996,
      "componentType": 5125,
      "count": 62103,
      "type": "SCALAR"
    },
    {
      "bufferView": 2,
      "byteOffset": 2998968,
      "componentType": 5126,
      "count": 115,
      "max": [
        73.1544189453125,
        4.5849833488464355,
        8.047616958618164
      ],
      "min": [
        6.547491550445557,
        -33.504600524902344,
        0.9922894239425659
      ],
      "type": "VEC3"
    },
    {
      "bufferView": 2,
      "byteOffset": 3000348,
      "componentType": 5126,
      "count": 115,
      "max": [
        0.9560410380363464,
        0.9998505711555481,
        0.9861526489257813
      ],
      "min": [
        -0.9999240636825562,
        -0.9488364458084106,
        -0.13403142988681793
      ],
      "type": "VEC3"
    },
    {
      "bufferView": 1,
      "byteOffset": 1999312,
      "componentType": 5126,
      "count": 115,
      "max": [
        1.0,
        1.0
      ],
      "min": [
        0.0,
        0.0
      ],
      "type": "VEC2"
    },
    {
      "bufferView": 1,
      "byteOffset": 2000232,
      "componentType": 5126,
      "count": 115,
      "max": [
        0.0,
        0.0
      ],
      "min": [
        0.0,
        0.0
      ],
      "type": "VEC2"
    },
    {
      "bufferView": 0,
      "byteOffset": 921408,
      "componentType": 5125,
      "count": 297,
      "type": "SCALAR"
    },
    {
      "bufferView": 2,
      "byteOffset": 3001728,
      "componentType": 5126,
      "count": 1547,
      "max": [
        77.23418426513672,
        3.397195339202881,
        7.698286056518555
      ],
      "min": [
        -49.39398193359375,
        -45.13385772705078,
        0.5577738881111145
      ],
      "type": "VEC3"
    },
    {
      "bufferView": 2,
      "byteOffset": 3020292,
      "componentType": 5126,
      "count": 1547,
      "max": [
        1.0,
        1.0,
        1.0
      ],
      "min": [
        -1.0,
        -1.0,
        -1.0
      ],
      "type": "VEC3"
    },
    {
      "bufferView": 3,
      "byteOffset": 631776,
      "componentType": 5126,
      "count": 1547,
      "max": [
        1.0,
        1.0,
        1.0,
        1.0
      ],
      "min": [
        -1.0,
        -1.0,
        -1.0,
        -1.0
      ],
      "type": "VEC4"
    },
    {
      "bufferView": 1,
      "byteOffset": 2001152,
      "componentType": 5126,
      "count": 1547,
      "max": [
        0.9779537916183472,
        0.9770294427871704
      ],
      "min": [
        0.016711890697479248,
        0.46313363313674927
      ],
      "type": "VEC2"
    },
    {
      "bufferView": 1,
      "byteOffset": 2013528,
      "componentType": 5126,
      "count": 1547,
      "max": [
        36.35828399658203,
        4.847774982452393
      ],
      "min": [
        -36.23844909667969,
        -3.8477749824523926
      ],
      "type": "VEC2"
    },
    {
      "bufferView": 0,
      "byteOffset": 922596,
      "componentType": 5125,
      "count": 2370,
      "type": "SCALAR"
    },
    {
      "bufferView": 2,
      "byteOffset": 3038856,
      "componentType": 5126,
      "count": 1948,
      "max": [
        41.879886627197266,
        6.596581935882568,
        13.809778213500977
      ],
      "min": [
        -7.634932041168213,
        -41.6690559387207,
        3.051614999771118
      ],
      "type": "VEC3"
    },
    {
      "bufferView": 2,
      "byteOffset": 3062232,
      "componentType": 5126,
      "count": 1948,
      "max": [
        0.995853066444397,
        0.9866345524787903,
        0.9653274416923523
      ],
      "min": [
        -0.9951691627502441,
        -0.9943807125091553,
        -0.9165686368942261
      ],
      "type": "VEC3"
    },
    {
      "bufferView": 1,
      "byteOffset": 2025904,
      "componentType": 5126,
      "count": 1948,
      "max": [
        1.0,
        1.0
      ],
      "min": [
        0.0,
        0.0
      ],
      "type": "VEC2"
    },
    {
      "bufferView": 1,
      "byteOffset": 2041488,
      "componentType": 5126,
      "count": 1948,
      "max": [
        0.0,
        0.0
      ],
      "min": [
        0.0,
        0.0
      ],
      "type": "VEC2"
    },
    {
      "bufferView": 0,
      "byteOffset": 932076,
      "componentType": 5125,
      "count": 2922,
      "type": "SCALAR"
    },
    {
      "bufferView": 2,
      "byteOffset": 3085608,
      "componentType": 5126,
      "count": 888,
      "max": [
        73.212646484375,
        56.51283645629883,
        8.649872779846191
      ],
      "min": [
        -50.183773040771484,
        -44.84520721435547,
        2.1294853687286377
      ],
      "type": "VEC3"
    },
    {
      "bufferView": 2,
      "byteOffset": 3096264,
      "componentType": 5126,
      "count": 888,
      "max": [
        1.0,
        1.0,
        1.4896658058205503e-06
      ],
      "min": [
        -1.0,
        -1.0,
        -2.636546696521691e-06
      ],
      "type": "VEC3"
    },
    {
      "bufferView": 1,
      "byteOffset": 2057072,
      "componentType": 5126,
      "count": 888,
      "max": [
        0.8507686257362366,
        0.9106374979019165
      ],
      "min": [
        0.8404560089111328,
        0.829461932182312
      ],
      "type": "VEC2"
    },
    {
      "bufferView": 1,
      "byteOffset": 2064176,
      "componentType": 5126,
      "count": 888,
      "max": [
        0.0,
        0.0
      ],
      "min": [
        0.0,
        0.0
      ],
      "type": "VEC2"
    },
    {
      "bufferView": 0,
      "byteOffset": 943764,
      "componentType": 5125,
      "count": 1332,
      "type": "SCALAR"
    }
  ],
  "asset": {
    "extras": {
      "author": "novikto (https://sketchfab.com/novikto)",
      "license": "CC-BY-4.0 (http://creativecommons.org/licenses/by/4.0/)",
      "source": "https://sketchfab.com/3d-models/low-poly-industrial-zone-17816ea520cc40db9b094ec7779d2757",
      "title": "Low Poly Industrial Zone"
    },
    "generator": "Sketchfab-15.34.0",
    "version": "2.0"
  },
  "bufferViews": [
    {
      "buffer": 0,
      "byteLength": 949092,
      "name": "floatBufferViews",
      "target": 34963
    },
    {
      "buffer": 0,
      "byteLength": 2071280,
      "byteOffset": 949092,
      "byteStride": 8,
      "name": "floatBufferViews",
      "target": 34962
    },
    {
      "buffer": 0,
      "byteLength": 3106920,
      "byteOffset": 3020372,
      "byteStride": 12,
      "name": "floatBufferViews",
      "target": 34962
    },
    {
      "buffer": 0,
      "byteLength": 656528,
      "byteOffset": 6127292,
      "byteStride": 16,
      "name": "floatBufferViews",
      "target": 34962
    }
  ],
  "buffers": [
    {
      "byteLength": 6783820,
      "uri": "scene.bin"
    }
  ],
  "extensionsUsed": [
    "KHR_materials_specular"
  ],
  "images": [
    {
      "uri": "textures/Color_baseColor.png"
    },
    {
      "uri": "textures/Color_Profile_normal.png"
    },
    {
      "uri": "textures/Color_Wood_normal.png"
    },
    {
      "uri": "textures/kust_baseColor.png"
    },
    {
      "uri": "textures/Color_Brick_normal.png"
    },
    {
      "uri": "textures/Branches_baseColor.png"
    }
  ],
  "materials": [
    {
      "extensions": {
        "KHR_materials_specular": {
          "specularColorFactor": [
            1.0,
            1.0,
            1.0
          ],
          "specularFactor": 0.07771452255854494
        }
      },
      "name": "Color",
      "pbrMetallicRoughness": {
        "baseColorTexture": {
          "index": 0
        },
        "metallicFactor": 0.0,
        "roughnessFactor": 0.821335836452073
      }
    },
    {
      "extensions": {
        "KHR_materials_specular": {
          "specularColorFactor": [
            1.0,
            1.0,
            1.0
          ],
          "specularFactor": 0.05333349587351123
        }
      },
      "name": "Color_Profile",
      "normalTexture": {
        "index": 1,
        "texCoord": 1
      },
      "pbrMetallicRoughness": {
        "baseColorTexture": {
          "index": 0
        },
        "metallicFactor": 0.8091453231095561,
        "roughnessFactor": 0.7969548097670393
      }
    },
    {
      "extensions": {
        "KHR_materials_specular": {
          "specularColorFactor": [
            1.0,
            1.0,
            1.0
          ],
          "specularFactor": 0.03504772585973595
        }
      },
      "name": "Color_Wood",
      "normalTexture": {
        "index": 2,
        "texCoord": 1
      },
      "pbrMetallicRoughness": {
        "baseColorTexture": {
          "index": 0
        },
        "metallicFactor": 0.0,
        "roughnessFactor": 0.020187490095207927
      }
    },
    {
      "alphaCutoff": 0.12647657592861233,
      "alphaMode": "MASK",
      "doubleSided": true,
      "extensions": {
        "KHR_materials_specular": {
          "specularColorFactor": [
            1.0,
            1.0,
            1.0
          ],
          "specularFactor": 0.0
        }
      },
      "name": "kust",
      "pbrMetallicRoughness": {
        "baseColorTexture": {
          "index": 3
        },
        "metallicFactor": 0.0,
        "roughnessFactor": 0.0
      }
    },
    {
      "extensions": {
        "KHR_materials_specular": {
          "specularColorFactor": [
            1.0,
            1.0,
            1.0
          ],
          "specularFactor": 0.14476234594238763
        }
      },
      "name": "Color_Brick",
      "normalTexture": {
        "index": 4,
        "texCoord": 1
      },
      "pbrMetallicRoughness": {
        "baseColorTexture": {
          "index": 0
        },
        "metallicFactor": 0.0
      }
    },
    {
      "alphaCutoff": 0.11428606258609549,
      "alphaMode": "MASK",
      "doubleSided": true,
      "extensions": {
        "KHR_materials_specular": {
          "specularColorFactor": [
            1.0,
            1.0,
            1.0
          ],
          "specularFactor": 0.0
        }
      },
      "name": "Branches",
      "pbrMetallicRoughness": {
        "baseColorTexture": {
          "index": 5
        },
        "metallicFactor": 0.0,
        "roughnessFactor": 0.05066377345150008
      }
    },
    {
      "alphaMode": "BLEND",
      "extensions": {
        "KHR_materials_specular": {
          "specularColorFactor": [
            1.0,
            1.0,
            1.0
          ],
          "specularFactor": 0.3946678694639831
        }
      },
      "name": "Glass",
      "pbrMetallicRoughness": {
        "baseColorFactor": [
          0.4703990000000002,
          0.49261599999999994,
          0.8006559999999998,
          0.010666699174702246
        ],
        "metallicFactor": 0.0
      }
    }
  ],
  "meshes": [
    {
      "name": "Plane_Color_0",
      "primitives": [
        {
          "attributes": {
            "NORMAL": 1,
            "POSITION": 0,
            "TEXCOORD_0": 2,
            "TEXCOORD_1": 3
          },
          "indices": 4,
          "material": 0,
          "mode": 4
        }
      ]
    },
    {
      "name": "Plane_Color_0",
      "primitives": [
        {
          "attributes": {
            "NORMAL": 6,
            "POSITION": 5,
            "TEXCOORD_0": 7,
            "TEXCOORD_1": 8
          },
          "indices": 9,
          "material": 0,
          "mode": 4
        }
      ]
    },
    {
      "name": "Plane_Color_Profile_0",
      "primitives": [
        {
          "attributes": {
            "NORMAL": 11,
            "POSITION": 10,
            "TANGENT": 12,
            "TEXCOORD_0": 13,
            "TEXCOORD_1": 14
          },
          "indices": 15,
          "material": 1,
          "mode": 4
        }
      ]
    },
    {
      "name": "Plane_Color_Wood_0",
      "primitives": [
        {
          "attributes": {
            "NORMAL": 17,
            "POSITION": 16,
            "TANGENT": 18,
            "TEXCOORD_0": 19,
            "TEXCOORD_1": 20
          },
          "indices": 21,
          "material": 2,
          "mode": 4
        }
      ]
    },
    {
      "name": "Plane_kust_0",
      "primitives": [
        {
          "attributes": {
            "NORMAL": 23,
            "POSITION": 22,
            "TEXCOORD_0": 24,
            "TEXCOORD_1": 25
          },
          "indices": 26,
          "material": 3,
          "mode": 4
        }
      ]
    },
    {
      "name": "Plane_Color_Brick_0",
      "primitives": [
        {
          "attributes": {
            "NORMAL": 28,
            "POSITION": 27,
            "TANGENT": 29,
            "TEXCOORD_0": 30,
            "TEXCOORD_1": 31
          },
          "indices": 32,
          "material": 4,
          "mode": 4
        }
      ]
    },
    {
      "name": "Plane_Branches_0",
      "primitives": [
        {
          "attributes": {
            "NORMAL": 34,
            "POSITION": 33,
            "TEXCOORD_0": 35,
            "TEXCOORD_1": 36
          },
          "indices": 37,
          "material": 5,
          "mode": 4
        }
      ]
    },
    {
      "name": "Plane_Glass_0",
      "primitives": [
        {
          "attributes": {
            "NORMAL": 39,
            "POSITION": 38,
            "TEXCOORD_0": 40,
            "TEXCOORD_1": 41
          },
          "indices": 42,
          "material": 6,
          "mode": 4
        }
      ]
    }
  ],
  "nodes": [
    {
      "children": [
        1
      ],
      "matrix": [
        1.0,
        0.0,
        0.0,
        0.0,
        0.0,
        2.220446049250313e-16,
        -1.0,
        0.0,
        0.0,
        1.0,
        2.220446049250313e-16,
        0.0,
        0.0,
        0.0,
        0.0,
        1.0
      ],
      "name": "Sketchfab_model"
    },
    {
      "children": [
        2
      ],
      "matrix": [
        0.009999999776482582,
        0.0,
        0.0,
        0.0,
        0.0,
        0.0,
        0.009999999776482582,
        0.0,
        0.0,
        -0.009999999776482582,
        0.0,
        0.0,
        0.0,
        0.0,
        0.0,
        1.0
      ],
      "name": "884c4312785a470d92b57aa73e0ca8ed.fbx"
    },
    {
      "children": [
        3
      ],
      "name": "RootNode"
    },
    {
      "children": [
        4,
        5,
        6,
        7,
        8,
        9,
        10,
        11
      ],
      "matrix": [
        100.0,
        0.0,
        0.0,
        0.0,
        0.0,
        -1.629206793918314e-05,
        -99.99999999999868,
        0.0,
        0.0,
        99.99999999999868,
        -1.629206793918314e-05,
        0.0,
        0.0,
        0.0,
        0.0,
        1.0
      ],
      "name": "Plane"
    },
    {
      "mesh": 0,
      "name": "Plane_Color_0"
    },
    {
      "mesh": 1,
      "name": "Plane_Color_0"
    },
    {
      "mesh": 2,
      "name": "Plane_Color_Profile_0"
    },
    {
      "mesh": 3,
      "name": "Plane_Color_Wood_0"
    },
    {
      "mesh": 4,
      "name": "Plane_kust_0"
    },
    {
      "mesh": 5,
      "name": "Plane_Color_Brick_0"
    },
    {
      "mesh": 6,
      "name": "Plane_Branches_0"
    },
    {
      "mesh": 7,
      "name": "Plane_Glass_0"
    }
  ],
  "samplers": [
    {
      "magFilter": 9729,
      "minFilter": 9987,
      "wrapS": 10497,
      "wrapT": 10497
    }
  ],
  "scene": 0,
  "scenes": [
    {
      "name": "Sketchfab_Scene",
      "nodes": [
        0
      ]
    }
  ],
  "textures": [
    {
      "sampler": 0,
      "source": 0
    },
    {
      "sampler": 0,
      "source": 1
    },
    {
      "sampler": 0,
      "source": 2
    },
    {
      "sampler": 0,
      "source": 3
    },
    {
      "sampler": 0,
      "source": 4
    },
    {
      "sampler": 0,
      "source": 5
    }
  ]
}
